<mxfile host="65bd71144e">
    <diagram id="LXeAL12Woh3zOKZl7c3A" name="第 1 页">
        <mxGraphModel dx="661" dy="370" grid="1" gridSize="10" guides="1" tooltips="1" connect="1" arrows="1" fold="1" page="1" pageScale="1" pageWidth="827" pageHeight="1169" math="0" shadow="0">
            <root>
                <mxCell id="0"/>
                <mxCell id="1" parent="0"/>
                <mxCell id="2" value="王爷爷" style="ellipse;whiteSpace=wrap;html=1;fontSize=19;fontFamily=Times New Roman;" vertex="1" parent="1">
                    <mxGeometry x="360" y="200" width="80" height="40" as="geometry"/>
                </mxCell>
                <mxCell id="15" style="edgeStyle=none;html=1;fontSize=19;fontFamily=Times New Roman;" edge="1" parent="1" source="3" target="2">
                    <mxGeometry relative="1" as="geometry"/>
                </mxCell>
                <mxCell id="3" value="王一叔叔" style="ellipse;whiteSpace=wrap;html=1;fontSize=19;fontFamily=Times New Roman;" vertex="1" parent="1">
                    <mxGeometry x="290" y="260" width="100" height="40" as="geometry"/>
                </mxCell>
                <mxCell id="16" style="edgeStyle=none;html=1;fontSize=19;fontFamily=Times New Roman;" edge="1" parent="1" source="4" target="2">
                    <mxGeometry relative="1" as="geometry"/>
                </mxCell>
                <mxCell id="4" value="王二叔叔" style="ellipse;whiteSpace=wrap;html=1;fontSize=19;fontFamily=Times New Roman;" vertex="1" parent="1">
                    <mxGeometry x="410" y="260" width="100" height="40" as="geometry"/>
                </mxCell>
                <mxCell id="10" style="edgeStyle=none;html=1;fontSize=19;fontFamily=Times New Roman;" edge="1" parent="1" source="5" target="3">
                    <mxGeometry relative="1" as="geometry"/>
                </mxCell>
                <mxCell id="5" value="小王1" style="ellipse;whiteSpace=wrap;html=1;fontSize=19;fontFamily=Times New Roman;" vertex="1" parent="1">
                    <mxGeometry x="240" y="320" width="60" height="40" as="geometry"/>
                </mxCell>
                <mxCell id="11" style="edgeStyle=none;html=1;fontSize=19;fontFamily=Times New Roman;" edge="1" parent="1" source="6" target="3">
                    <mxGeometry relative="1" as="geometry"/>
                </mxCell>
                <mxCell id="6" value="小王2" style="ellipse;whiteSpace=wrap;html=1;fontSize=19;fontFamily=Times New Roman;" vertex="1" parent="1">
                    <mxGeometry x="310" y="320" width="60" height="40" as="geometry"/>
                </mxCell>
                <mxCell id="12" style="edgeStyle=none;html=1;fontSize=19;fontFamily=Times New Roman;" edge="1" parent="1" source="7" target="4">
                    <mxGeometry relative="1" as="geometry"/>
                </mxCell>
                <mxCell id="7" value="小王3" style="ellipse;whiteSpace=wrap;html=1;fontSize=19;fontFamily=Times New Roman;" vertex="1" parent="1">
                    <mxGeometry x="380" y="320" width="60" height="40" as="geometry"/>
                </mxCell>
                <mxCell id="13" style="edgeStyle=none;html=1;fontSize=19;fontFamily=Times New Roman;" edge="1" parent="1" source="8" target="4">
                    <mxGeometry relative="1" as="geometry"/>
                </mxCell>
                <mxCell id="8" value="小王4" style="ellipse;whiteSpace=wrap;html=1;fontSize=19;fontFamily=Times New Roman;" vertex="1" parent="1">
                    <mxGeometry x="450" y="320" width="60" height="40" as="geometry"/>
                </mxCell>
                <mxCell id="14" style="edgeStyle=none;html=1;fontSize=19;fontFamily=Times New Roman;" edge="1" parent="1" source="9" target="4">
                    <mxGeometry relative="1" as="geometry"/>
                </mxCell>
                <mxCell id="9" value="小王5" style="ellipse;whiteSpace=wrap;html=1;fontSize=19;fontFamily=Times New Roman;" vertex="1" parent="1">
                    <mxGeometry x="520" y="320" width="60" height="40" as="geometry"/>
                </mxCell>
            </root>
        </mxGraphModel>
    </diagram>
</mxfile>